<?xml version="1.0" standalone="no"?>
<!DOCTYPE svg PUBLIC "-//W3C//DTD SVG 20010904//EN"
 "http://www.w3.org/TR/2001/REC-SVG-20010904/DTD/svg10.dtd">
<svg version="1.0" xmlns="http://www.w3.org/2000/svg"
 width="700.000000pt" height="700.000000pt" viewBox="0 0 700.000000 700.000000"
 preserveAspectRatio="xMidYMid meet">
<metadata>
Created by potrace 1.14, written by Peter Selinger 2001-2017
</metadata>
<g transform="translate(0.000000,700.000000) scale(0.100000,-0.100000)"
fill="#000000" stroke="none">
<path d="M2190 6453 c-552 -66 -1025 -369 -1316 -843 -108 -177 -201 -424
-229 -610 -3 -20 -7 -47 -10 -60 -16 -81 -18 -298 -18 -1440 0 -1155 3 -1386
19 -1475 14 -80 36 -184 46 -215 151 -506 467 -886 926 -1115 151 -75 285
-118 492 -161 14 -2 54 -8 90 -12 85 -9 2588 -9 2662 0 473 61 901 305 1191
681 143 186 230 360 306 612 11 39 23 84 25 100 3 17 10 54 16 83 21 112 23
277 23 1492 0 1386 0 1399 -45 1595 -122 531 -491 989 -976 1212 -160 73 -357
133 -487 148 -33 4 -64 10 -70 14 -5 3 -579 6 -1275 6 -955 1 -1291 -2 -1370
-12z"/>
</g>
</svg>
